# xmcd
#
# Track frame offsets: 
#        150
#        13667
#        29830
#        48036
#        67127
#        82944
#        97642
#        110865
#        131443
#        143774
#        161714
#        186589
#
# Disc length: 2631 seconds
#
# Revision: 0
# Processed by: cddbd v1.5.2PL0 Copyright (c) Steve Scherf et al.
# Submitted via: ExactAudioCopyFreeDBPlugin 1.0
#
DISCID=a30a450c
DTITLE=Shannon McNally - Black Irish
DYEAR=2017
DGENRE=Blues
TTITLE0=You made me feel for you
TTITLE1=I ain't gonna stand for it
TTITLE2=Banshee moan
TTITLE3=I went to the well
TTITLE4=Roll away the stone
TTITLE5=Black haired boy
TTITLE6=Low rider
TTITLE7=Isn't that love?
TTITLE8=The stuff you gotta watch
TTITLE9=Prayer in open D
TTITLE10=It makes no difference
TTITLE11=Let's go home
EXTD=
EXTT0=
EXTT1=
EXTT2=
EXTT3=
EXTT4=
EXTT5=
EXTT6=
EXTT7=
EXTT8=
EXTT9=
EXTT10=
EXTT11=
PLAYORDER=
